<svg id="George-Beresford-Design" xmlns="http://www.w3.org/2000/svg" version="1.1" viewBox="0 0 1080 1080"><path fill="#ea1f6d" d="M290 107L40 251.4l250 144.4s255.1-147 249.9-144.4C534.9 248.6 290 107 290 107zm0 577.4V973l250-144.4V540L290 684.4z"/><path fill="#ea1f6d" d="M540 251.4V540l250 144.4V107L540 251.4zm250 433V973l250-144.4V540L790 684.4z"/><path d="M290 684.4L540 540 290 395.6v288.7zM40 828.6L290 973V684.4L40 828.7zM1040 540L790 395.6v288.7l250-144.4z" fill="#fac517"/><path d="M40 251.4V540l250 144.4V395.7L40 251.4zm250 144.2L540 540V251.4L290 395.7zM540 540v288.6L790 973V684.4L540 540z" fill="#521bf8"/></svg>