<?xml version="1.0" encoding="UTF-8"?>
<svg id="Layer_1" xmlns="http://www.w3.org/2000/svg" version="1.1" viewBox="0 0 1080 1080">
  <!-- Generator: Adobe Illustrator 29.5.0, SVG Export Plug-In . SVG Version: 2.1.0 Build 137)  -->
  <defs>
    <style>
      .st0 {
        fill: #ea1f6d;
      }

      .st1 {
        fill: #521bf8;
      }

      .st2 {
        fill: #fac517;
      }
    </style>
  </defs>
  <g>
    <path class="st0" d="M270,72.4L0,228.3l270,155.9s275.5-158.8,269.9-155.9c-5.4-3-269.9-155.9-269.9-155.9h0Z"/>
    <polygon class="st0" points="270 695.9 270 1007.6 540 851.7 540 540 270 695.9"/>
    <polygon class="st0" points="540 228.3 540 228.3 540 540 540 540 810 695.9 810 384.1 810 384.1 810 72.4 540 228.3"/>
    <polygon class="st0" points="810 695.9 810 1007.6 1080 851.7 1080 540 810 695.9"/>
  </g>
  <g>
    <polygon class="st2" points="270 695.9 540 540 270 384.1 270 695.9"/>
    <polygon class="st2" points="0 851.7 0 851.7 270 1007.6 270 695.9 0 851.7"/>
    <polygon class="st2" points="1080 540 810 384.1 810 695.9 1080 540"/>
  </g>
  <g>
    <polygon class="st1" points="0 228.3 0 228.3 0 540 0 540 270 695.9 270 384.1 0 228.3"/>
    <polygon class="st1" points="270 384.1 540 540 540 540 540 228.3 270 384.1"/>
    <polygon class="st1" points="540 540 540 540 540 540 540 851.7 810 1007.6 810 695.9 540 540"/>
  </g>
</svg>