<svg id="Pride-Life-Magazine" xmlns="http://www.w3.org/2000/svg" version="1.1" viewBox="0 0 200 48">
  <g fill="#FFFFFF">
    <path d="M37.1,4.6c-1.5-1.4-3.3-2.5-5.3-3.3C29.8.4,27.5,0,25.2,0H0v47.9h13.5v-16.4h11.7c2.3,0,4.6-.4,6.6-1.2,2-.8,3.8-1.9,5.3-3.3,1.5-1.4,2.7-3.1,3.5-5,.8-1.9,1.3-4,1.3-6.2s-.4-4.4-1.3-6.3c-.8-1.9-2-3.6-3.5-5.1ZM28.2,16c0,1.2-.4,2.2-1.2,2.9-.8.8-1.9,1.1-3.2,1.1h-10.4v-8.2h10.4c1.3,0,2.4.4,3.2,1.2.8.8,1.2,1.7,1.2,3Z"/>
    <path d="M84.5,24.1c1.7-2.4,2.5-5.2,2.5-8.3s-.4-4.4-1.3-6.3c-.9-1.9-2.1-3.6-3.6-5-1.5-1.4-3.4-2.5-5.5-3.2-2.1-.8-4.4-1.1-6.9-1.1h-24.5v47.9h13.5v-16.6h6.7l8.6,16.6h15.1l-10.3-18.9c2.3-1.2,4.1-2.9,5.6-5ZM73.4,15.9c0,1.2-.4,2.1-1.2,2.9-.9.8-2,1.1-3.5,1.1h-10v-8.1h10c1.5,0,2.6.4,3.5,1.1.8.7,1.2,1.7,1.2,2.9Z"/>
    <path d="M150.4,7c-2.2-2.1-4.9-3.8-8-5.1-3.1-1.2-6.4-1.9-9.9-1.9h-19.6v47.9h19.6c3.5,0,6.8-.6,9.9-1.8,3.1-1.2,5.8-2.9,8-5.1,2.2-2.1,4.1-4.7,5.4-7.6,1.3-2.9,2-6.1,2-9.3s-.7-6.6-2-9.5c-1.3-2.9-3.1-5.5-5.4-7.6ZM126.4,12.2h5.9c1.6,0,3.2.3,4.6.9,1.4.6,2.7,1.5,3.7,2.5,1,1.1,1.9,2.3,2.5,3.8.6,1.4.9,3,.9,4.7s-.3,3.2-.9,4.6c-.6,1.4-1.4,2.7-2.5,3.7-1,1-2.3,1.9-3.7,2.5-1.4.6-3,.9-4.6.9h-5.9V12.2Z"/>
    <polygon points="175 36 175 29.6 191.3 29.6 191.3 18 175 18 175 12 199.7 12 199.7 0 161.5 0 161.5 48 200 48 200 36 175 36"/>
    <polygon points="104.8 43.4 92.7 43.4 92.7 47.9 108.9 47.9 108.9 35.2 104.8 35.2 104.8 43.4"/>
    <rect x="92.7" y="29.3" width="16.2" height="4.6"/>
    <polygon points="102.8 17.3 98.9 17.3 98.9 23 96.8 23 96.8 14.5 92.7 14.5 92.7 27.5 108.9 27.5 108.9 23 102.8 23 102.8 17.3"/>
    <polygon points="104.9 8.6 102.7 8.6 102.7 3 98.8 3 98.8 8.6 96.8 8.6 96.8 .2 92.7 .2 92.7 13.1 108.9 13.1 108.9 .1 104.9 .1 104.9 8.6"/>
  </g>
</svg>