<?xml version="1.0" encoding="UTF-8"?>
<svg id="Layer_1" xmlns="http://www.w3.org/2000/svg" version="1.1" viewBox="0 0 1080 1080">
  <!-- Generator: Adobe Illustrator 29.6.0, SVG Export Plug-In . SVG Version: 2.1.1 Build 207)  -->
  <path d="M0,347.1v385.7h1080v-385.7H0ZM266.8,530.6c-3.7,8.7-9.2,16.6-16.1,23-6.9,6.4-15.2,11.5-24.4,15.2-9.2,3.7-19.8,5.5-30.4,5.5h-53.8v75.4h-62.1v-220.3h115.9c10.6,0,21.2,1.8,30.4,6,9.2,3.7,17.5,8.7,24.4,15.2v-.9c6.9,6.9,12.4,14.7,16.1,23.5,4.1,8.7,6,18.9,6,29s-2.3,19.8-6,28.5ZM420.4,650.6l-39.6-76.4h-30.8v76.4h-62.1v-220.3h112.7c11.5,0,22.1,1.4,31.7,5.1,9.7,3.2,18.4,8.3,25.3,14.7s12.4,14.3,16.6,23c4.1,8.7,6,14.7,6,29s-3.7,27.1-11.5,38.2l-.5.5c-6.9,9.7-15.2,17.5-25.8,23l47.4,86.9h-69.5ZM580.9,649.7h-74.5v-20.7h55.7v-37.7h18.9v58.4ZM580.9,585.3h-74.5v-21.2h74.5v21.2ZM580.9,555.9h-74.5v-59.8h18.9v39.1h9.7v-26.2h17.9v26.2h28.1v20.7ZM580.9,489.6h-74.5v-59.3h18.9v38.6h9.2v-25.8h17.9v25.8h10.1v-39.1h18.4v59.8ZM796.7,583c-6,13.3-14.7,25.3-24.8,35-10.1,10.1-22.5,17.9-36.8,23.5-14.3,5.5-29.4,8.3-45.5,8.3h-90.2v-220.3h90.2c16.1,0,31.3,3.2,45.5,8.7,14.3,6,26.7,13.8,36.8,23.5,10.6,9.7,18.9,21.6,24.8,35,6,13.3,9.2,29,9.2,43.7s-3.2,29.4-9.2,42.8ZM1000,650.2h-177.1v-220.8h175.7v55.2h-113.6v27.6h75v53.4h-75v29.4h115v55.2Z"/>
  <path d="M189.5,483.6h-47.8v37.7h47.8c6,0,11-1.4,14.7-5.1,3.7-3.2,5.5-7.8,5.5-13.3s-1.8-10.1-5.5-13.8c-3.7-3.7-8.7-5.5-14.7-5.5Z"/>
  <path d="M726.8,501.1c-4.6-4.6-10.6-8.7-17-11.5-6.4-2.8-13.8-4.1-21.2-4.1h-27.1v108.6h27.1c7.4,0,14.7-1.4,21.2-4.1,6.4-2.8,12.4-6.9,17-11.5,5.1-4.6,8.7-10.6,11.5-17,2.8-6.4,4.1-13.3,4.1-21.2s-1.4-15.2-4.1-21.6c-2.8-6.9-6.9-12.4-11.5-17.5Z"/>
  <path d="M412.1,488.7c-4.1-3.2-9.2-5.1-16.1-5.1h-46v37.3h46c6.9,0,12-1.4,16.1-5.1,3.7-3.7,5.5-7.8,5.5-13.3v-.5c0-5.5-1.8-10.1-5.5-13.3Z"/>
</svg>